<mxfile host="app.diagrams.net" modified="2023-11-28T14:33:39.951Z" agent="Mozilla/5.0 (Windows NT 10.0; Win64; x64) AppleWebKit/537.36 (KHTML, like Gecko) Chrome/119.0.0.0 Safari/537.36" etag="pBX_yjzfSiM4K7TkYjV2" version="22.1.4" type="github">
  <diagram name="Pagina-1" id="qciENuRhxDM16z5-KsNE">
    <mxGraphModel dx="4334" dy="2842" grid="1" gridSize="10" guides="1" tooltips="1" connect="1" arrows="1" fold="1" page="1" pageScale="1" pageWidth="3300" pageHeight="2339" math="0" shadow="0">
      <root>
        <mxCell id="0" />
        <mxCell id="1" parent="0" />
        <mxCell id="ZxOc-NwCXkHzNGyO08E0-48" value="" style="childLayout=tableLayout;recursiveResize=0;shadow=0;strokeColor=#E6E6E6;align=left;" parent="1" vertex="1">
          <mxGeometry x="-580" y="-90" width="841" height="613" as="geometry" />
        </mxCell>
        <mxCell id="ZxOc-NwCXkHzNGyO08E0-49" value="" style="shape=tableRow;horizontal=0;startSize=0;swimlaneHead=0;swimlaneBody=0;top=0;left=0;bottom=0;right=0;dropTarget=0;collapsible=0;recursiveResize=0;expand=0;fontStyle=0;fillColor=none;strokeColor=inherit;" parent="ZxOc-NwCXkHzNGyO08E0-48" vertex="1">
          <mxGeometry width="841" height="44" as="geometry" />
        </mxCell>
        <mxCell id="ZxOc-NwCXkHzNGyO08E0-50" value="&lt;span style=&quot;white-space: pre;&quot;&gt;&#x9;&lt;/span&gt;STEP" style="connectable=0;recursiveResize=0;strokeColor=inherit;fillColor=none;align=left;whiteSpace=wrap;html=1;fontStyle=1" parent="ZxOc-NwCXkHzNGyO08E0-49" vertex="1">
          <mxGeometry width="480" height="44" as="geometry">
            <mxRectangle width="480" height="44" as="alternateBounds" />
          </mxGeometry>
        </mxCell>
        <mxCell id="ZxOc-NwCXkHzNGyO08E0-51" value="&lt;span style=&quot;white-space: pre;&quot;&gt;&#x9;&lt;/span&gt;COST CALCULATION" style="connectable=0;recursiveResize=0;strokeColor=inherit;fillColor=none;align=left;whiteSpace=wrap;html=1;fontStyle=1" parent="ZxOc-NwCXkHzNGyO08E0-49" vertex="1">
          <mxGeometry x="480" width="200" height="44" as="geometry">
            <mxRectangle width="200" height="44" as="alternateBounds" />
          </mxGeometry>
        </mxCell>
        <mxCell id="ZxOc-NwCXkHzNGyO08E0-52" value="&lt;span style=&quot;white-space: pre;&quot;&gt;&#x9;&lt;/span&gt;STEP COST" style="connectable=0;recursiveResize=0;strokeColor=inherit;fillColor=none;align=left;whiteSpace=wrap;html=1;fontStyle=1" parent="ZxOc-NwCXkHzNGyO08E0-49" vertex="1">
          <mxGeometry x="680" width="161" height="44" as="geometry">
            <mxRectangle width="161" height="44" as="alternateBounds" />
          </mxGeometry>
        </mxCell>
        <mxCell id="ZxOc-NwCXkHzNGyO08E0-53" style="shape=tableRow;horizontal=0;startSize=0;swimlaneHead=0;swimlaneBody=0;top=0;left=0;bottom=0;right=0;dropTarget=0;collapsible=0;recursiveResize=0;expand=0;fontStyle=0;fillColor=none;strokeColor=inherit;align=left;" parent="ZxOc-NwCXkHzNGyO08E0-48" vertex="1">
          <mxGeometry y="44" width="841" height="41" as="geometry" />
        </mxCell>
        <mxCell id="ZxOc-NwCXkHzNGyO08E0-54" value="&lt;span style=&quot;white-space: pre;&quot;&gt;&#x9;&lt;/span&gt;1 USER open classifier evaluation window&amp;nbsp;" style="connectable=0;recursiveResize=0;strokeColor=inherit;fillColor=none;align=left;whiteSpace=wrap;html=1;" parent="ZxOc-NwCXkHzNGyO08E0-53" vertex="1">
          <mxGeometry width="480" height="41" as="geometry">
            <mxRectangle width="480" height="41" as="alternateBounds" />
          </mxGeometry>
        </mxCell>
        <mxCell id="ZxOc-NwCXkHzNGyO08E0-55" value="&lt;span style=&quot;white-space: pre;&quot;&gt;&#x9;&lt;/span&gt;1 x 1 x Y" style="connectable=0;recursiveResize=0;strokeColor=inherit;fillColor=none;align=left;whiteSpace=wrap;html=1;" parent="ZxOc-NwCXkHzNGyO08E0-53" vertex="1">
          <mxGeometry x="480" width="200" height="41" as="geometry">
            <mxRectangle width="200" height="41" as="alternateBounds" />
          </mxGeometry>
        </mxCell>
        <mxCell id="ZxOc-NwCXkHzNGyO08E0-56" value="&lt;span style=&quot;white-space: pre;&quot;&gt;&#x9;&lt;/span&gt;-" style="connectable=0;recursiveResize=0;strokeColor=inherit;fillColor=none;align=left;whiteSpace=wrap;html=1;" parent="ZxOc-NwCXkHzNGyO08E0-53" vertex="1">
          <mxGeometry x="680" width="161" height="41" as="geometry">
            <mxRectangle width="161" height="41" as="alternateBounds" />
          </mxGeometry>
        </mxCell>
        <mxCell id="ZxOc-NwCXkHzNGyO08E0-57" style="shape=tableRow;horizontal=0;startSize=0;swimlaneHead=0;swimlaneBody=0;top=0;left=0;bottom=0;right=0;dropTarget=0;collapsible=0;recursiveResize=0;expand=0;fontStyle=0;fillColor=none;strokeColor=inherit;" parent="ZxOc-NwCXkHzNGyO08E0-48" vertex="1">
          <mxGeometry y="85" width="841" height="44" as="geometry" />
        </mxCell>
        <mxCell id="ZxOc-NwCXkHzNGyO08E0-58" value="&lt;span style=&quot;white-space: pre;&quot;&gt;&#x9;&lt;/span&gt;2 SYSTEM show the reports" style="connectable=0;recursiveResize=0;strokeColor=inherit;fillColor=none;align=left;whiteSpace=wrap;html=1;" parent="ZxOc-NwCXkHzNGyO08E0-57" vertex="1">
          <mxGeometry width="480" height="44" as="geometry">
            <mxRectangle width="480" height="44" as="alternateBounds" />
          </mxGeometry>
        </mxCell>
        <mxCell id="ZxOc-NwCXkHzNGyO08E0-59" value="&lt;span style=&quot;white-space: pre;&quot;&gt;&#x9;&lt;/span&gt;" style="connectable=0;recursiveResize=0;strokeColor=inherit;fillColor=none;align=left;whiteSpace=wrap;html=1;" parent="ZxOc-NwCXkHzNGyO08E0-57" vertex="1">
          <mxGeometry x="480" width="200" height="44" as="geometry">
            <mxRectangle width="200" height="44" as="alternateBounds" />
          </mxGeometry>
        </mxCell>
        <mxCell id="ZxOc-NwCXkHzNGyO08E0-60" value="" style="connectable=0;recursiveResize=0;strokeColor=inherit;fillColor=none;align=left;whiteSpace=wrap;html=1;" parent="ZxOc-NwCXkHzNGyO08E0-57" vertex="1">
          <mxGeometry x="680" width="161" height="44" as="geometry">
            <mxRectangle width="161" height="44" as="alternateBounds" />
          </mxGeometry>
        </mxCell>
        <mxCell id="ZxOc-NwCXkHzNGyO08E0-68" style="shape=tableRow;horizontal=0;startSize=0;swimlaneHead=0;swimlaneBody=0;top=0;left=0;bottom=0;right=0;dropTarget=0;collapsible=0;recursiveResize=0;expand=0;fontStyle=0;fillColor=none;strokeColor=inherit;" parent="ZxOc-NwCXkHzNGyO08E0-48" vertex="1">
          <mxGeometry y="129" width="841" height="44" as="geometry" />
        </mxCell>
        <mxCell id="ZxOc-NwCXkHzNGyO08E0-69" value="&lt;span style=&quot;&quot;&gt;&lt;span style=&quot;white-space: pre;&quot;&gt;&amp;nbsp;&lt;span style=&quot;white-space: pre;&quot;&gt;&#x9;&lt;/span&gt;&lt;/span&gt;&lt;/span&gt;3 USER check tables, values and graphs" style="connectable=0;recursiveResize=0;strokeColor=inherit;fillColor=none;align=left;whiteSpace=wrap;html=1;" parent="ZxOc-NwCXkHzNGyO08E0-68" vertex="1">
          <mxGeometry width="480" height="44" as="geometry">
            <mxRectangle width="480" height="44" as="alternateBounds" />
          </mxGeometry>
        </mxCell>
        <mxCell id="ZxOc-NwCXkHzNGyO08E0-70" value="&#x9;&lt;span style=&quot;white-space: pre;&quot;&gt;&#x9;&lt;/span&gt;1 x 2 x Y" style="connectable=0;recursiveResize=0;strokeColor=inherit;fillColor=none;align=left;whiteSpace=wrap;html=1;" parent="ZxOc-NwCXkHzNGyO08E0-68" vertex="1">
          <mxGeometry x="480" width="200" height="44" as="geometry">
            <mxRectangle width="200" height="44" as="alternateBounds" />
          </mxGeometry>
        </mxCell>
        <mxCell id="ZxOc-NwCXkHzNGyO08E0-71" value="&#x9;&lt;span style=&quot;white-space: pre;&quot;&gt;&#x9;&lt;/span&gt;-" style="connectable=0;recursiveResize=0;strokeColor=inherit;fillColor=none;align=left;whiteSpace=wrap;html=1;" parent="ZxOc-NwCXkHzNGyO08E0-68" vertex="1">
          <mxGeometry x="680" width="161" height="44" as="geometry">
            <mxRectangle width="161" height="44" as="alternateBounds" />
          </mxGeometry>
        </mxCell>
        <mxCell id="ZxOc-NwCXkHzNGyO08E0-72" style="shape=tableRow;horizontal=0;startSize=0;swimlaneHead=0;swimlaneBody=0;top=0;left=0;bottom=0;right=0;dropTarget=0;collapsible=0;recursiveResize=0;expand=0;fontStyle=0;fillColor=none;strokeColor=inherit;" parent="ZxOc-NwCXkHzNGyO08E0-48" vertex="1">
          <mxGeometry y="173" width="841" height="44" as="geometry" />
        </mxCell>
        <mxCell id="ZxOc-NwCXkHzNGyO08E0-73" value="&lt;span style=&quot;white-space: pre;&quot;&gt;&#x9;&lt;/span&gt;4 USER set the maximum allowed t&lt;span style=&quot;border-color: var(--border-color); background-color: initial;&quot;&gt;otal errors and&amp;nbsp;&lt;/span&gt;consecutive&amp;nbsp;errors" style="connectable=0;recursiveResize=0;strokeColor=inherit;fillColor=none;align=left;whiteSpace=wrap;html=1;" parent="ZxOc-NwCXkHzNGyO08E0-72" vertex="1">
          <mxGeometry width="480" height="44" as="geometry">
            <mxRectangle width="480" height="44" as="alternateBounds" />
          </mxGeometry>
        </mxCell>
        <mxCell id="ZxOc-NwCXkHzNGyO08E0-74" value="&#x9;&lt;span style=&quot;white-space: pre;&quot;&gt;&#x9;&lt;/span&gt;1 x 3 x Y" style="connectable=0;recursiveResize=0;strokeColor=inherit;fillColor=none;align=left;whiteSpace=wrap;html=1;" parent="ZxOc-NwCXkHzNGyO08E0-72" vertex="1">
          <mxGeometry x="480" width="200" height="44" as="geometry">
            <mxRectangle width="200" height="44" as="alternateBounds" />
          </mxGeometry>
        </mxCell>
        <mxCell id="ZxOc-NwCXkHzNGyO08E0-75" value="&#x9;&lt;span style=&quot;white-space: pre;&quot;&gt;&#x9;&lt;/span&gt;-" style="connectable=0;recursiveResize=0;strokeColor=inherit;fillColor=none;align=left;whiteSpace=wrap;html=1;" parent="ZxOc-NwCXkHzNGyO08E0-72" vertex="1">
          <mxGeometry x="680" width="161" height="44" as="geometry">
            <mxRectangle width="161" height="44" as="alternateBounds" />
          </mxGeometry>
        </mxCell>
        <mxCell id="ZxOc-NwCXkHzNGyO08E0-100" style="shape=tableRow;horizontal=0;startSize=0;swimlaneHead=0;swimlaneBody=0;top=0;left=0;bottom=0;right=0;dropTarget=0;collapsible=0;recursiveResize=0;expand=0;fontStyle=0;fillColor=none;strokeColor=inherit;" parent="ZxOc-NwCXkHzNGyO08E0-48" vertex="1">
          <mxGeometry y="217" width="841" height="44" as="geometry" />
        </mxCell>
        <mxCell id="ZxOc-NwCXkHzNGyO08E0-101" value="&lt;span style=&quot;white-space: pre;&quot;&gt;&#x9;&lt;/span&gt;5 SYSTEM show the thresholds conditions" style="connectable=0;recursiveResize=0;strokeColor=inherit;fillColor=none;align=left;whiteSpace=wrap;html=1;" parent="ZxOc-NwCXkHzNGyO08E0-100" vertex="1">
          <mxGeometry width="480" height="44" as="geometry">
            <mxRectangle width="480" height="44" as="alternateBounds" />
          </mxGeometry>
        </mxCell>
        <mxCell id="ZxOc-NwCXkHzNGyO08E0-102" style="connectable=0;recursiveResize=0;strokeColor=inherit;fillColor=none;align=left;whiteSpace=wrap;html=1;" parent="ZxOc-NwCXkHzNGyO08E0-100" vertex="1">
          <mxGeometry x="480" width="200" height="44" as="geometry">
            <mxRectangle width="200" height="44" as="alternateBounds" />
          </mxGeometry>
        </mxCell>
        <mxCell id="ZxOc-NwCXkHzNGyO08E0-103" style="connectable=0;recursiveResize=0;strokeColor=inherit;fillColor=none;align=left;whiteSpace=wrap;html=1;" parent="ZxOc-NwCXkHzNGyO08E0-100" vertex="1">
          <mxGeometry x="680" width="161" height="44" as="geometry">
            <mxRectangle width="161" height="44" as="alternateBounds" />
          </mxGeometry>
        </mxCell>
        <mxCell id="ZxOc-NwCXkHzNGyO08E0-76" style="shape=tableRow;horizontal=0;startSize=0;swimlaneHead=0;swimlaneBody=0;top=0;left=0;bottom=0;right=0;dropTarget=0;collapsible=0;recursiveResize=0;expand=0;fontStyle=0;fillColor=none;strokeColor=inherit;" parent="ZxOc-NwCXkHzNGyO08E0-48" vertex="1">
          <mxGeometry y="261" width="841" height="44" as="geometry" />
        </mxCell>
        <mxCell id="ZxOc-NwCXkHzNGyO08E0-77" value="&lt;span style=&quot;white-space: pre;&quot;&gt;&#x9;&lt;/span&gt;5.1&amp;nbsp;IF total # errors &amp;lt; maximum allowed total errors &lt;br&gt;&lt;span style=&quot;white-space: pre;&quot;&gt;&#x9;&lt;/span&gt;&amp;nbsp; &amp;nbsp; AND maximum consecutive errors&amp;nbsp;&amp;lt; maximum allowed consecutive errors" style="connectable=0;recursiveResize=0;strokeColor=inherit;fillColor=none;align=left;whiteSpace=wrap;html=1;" parent="ZxOc-NwCXkHzNGyO08E0-76" vertex="1">
          <mxGeometry width="480" height="44" as="geometry">
            <mxRectangle width="480" height="44" as="alternateBounds" />
          </mxGeometry>
        </mxCell>
        <mxCell id="ZxOc-NwCXkHzNGyO08E0-78" value="&#x9;&lt;span style=&quot;white-space: pre;&quot;&gt;&#x9;&lt;/span&gt;0.8" style="connectable=0;recursiveResize=0;strokeColor=inherit;fillColor=none;align=left;whiteSpace=wrap;html=1;" parent="ZxOc-NwCXkHzNGyO08E0-76" vertex="1">
          <mxGeometry x="480" width="200" height="44" as="geometry">
            <mxRectangle width="200" height="44" as="alternateBounds" />
          </mxGeometry>
        </mxCell>
        <mxCell id="ZxOc-NwCXkHzNGyO08E0-79" value="" style="connectable=0;recursiveResize=0;strokeColor=inherit;fillColor=none;align=left;whiteSpace=wrap;html=1;" parent="ZxOc-NwCXkHzNGyO08E0-76" vertex="1">
          <mxGeometry x="680" width="161" height="44" as="geometry">
            <mxRectangle width="161" height="44" as="alternateBounds" />
          </mxGeometry>
        </mxCell>
        <mxCell id="ZxOc-NwCXkHzNGyO08E0-104" style="shape=tableRow;horizontal=0;startSize=0;swimlaneHead=0;swimlaneBody=0;top=0;left=0;bottom=0;right=0;dropTarget=0;collapsible=0;recursiveResize=0;expand=0;fontStyle=0;fillColor=none;strokeColor=inherit;" parent="ZxOc-NwCXkHzNGyO08E0-48" vertex="1">
          <mxGeometry y="305" width="841" height="44" as="geometry" />
        </mxCell>
        <mxCell id="ZxOc-NwCXkHzNGyO08E0-105" value="&lt;span style=&quot;white-space: pre;&quot;&gt;&#x9;&lt;/span&gt;5.1.1 SYSTEM enable the submit button" style="connectable=0;recursiveResize=0;strokeColor=inherit;fillColor=none;align=left;whiteSpace=wrap;html=1;" parent="ZxOc-NwCXkHzNGyO08E0-104" vertex="1">
          <mxGeometry width="480" height="44" as="geometry">
            <mxRectangle width="480" height="44" as="alternateBounds" />
          </mxGeometry>
        </mxCell>
        <mxCell id="ZxOc-NwCXkHzNGyO08E0-106" style="connectable=0;recursiveResize=0;strokeColor=inherit;fillColor=none;align=left;whiteSpace=wrap;html=1;" parent="ZxOc-NwCXkHzNGyO08E0-104" vertex="1">
          <mxGeometry x="480" width="200" height="44" as="geometry">
            <mxRectangle width="200" height="44" as="alternateBounds" />
          </mxGeometry>
        </mxCell>
        <mxCell id="ZxOc-NwCXkHzNGyO08E0-107" style="connectable=0;recursiveResize=0;strokeColor=inherit;fillColor=none;align=left;whiteSpace=wrap;html=1;" parent="ZxOc-NwCXkHzNGyO08E0-104" vertex="1">
          <mxGeometry x="680" width="161" height="44" as="geometry">
            <mxRectangle width="161" height="44" as="alternateBounds" />
          </mxGeometry>
        </mxCell>
        <mxCell id="ZxOc-NwCXkHzNGyO08E0-80" style="shape=tableRow;horizontal=0;startSize=0;swimlaneHead=0;swimlaneBody=0;top=0;left=0;bottom=0;right=0;dropTarget=0;collapsible=0;recursiveResize=0;expand=0;fontStyle=0;fillColor=none;strokeColor=inherit;" parent="ZxOc-NwCXkHzNGyO08E0-48" vertex="1">
          <mxGeometry y="349" width="841" height="44" as="geometry" />
        </mxCell>
        <mxCell id="ZxOc-NwCXkHzNGyO08E0-81" value="&lt;span style=&quot;white-space: pre;&quot;&gt;&#x9;&lt;/span&gt;5.1.2 USER select submit" style="connectable=0;recursiveResize=0;strokeColor=inherit;fillColor=none;align=left;whiteSpace=wrap;html=1;" parent="ZxOc-NwCXkHzNGyO08E0-80" vertex="1">
          <mxGeometry width="480" height="44" as="geometry">
            <mxRectangle width="480" height="44" as="alternateBounds" />
          </mxGeometry>
        </mxCell>
        <mxCell id="ZxOc-NwCXkHzNGyO08E0-82" value="&#x9;&lt;span style=&quot;white-space: pre;&quot;&gt;&#x9;&lt;/span&gt;1 x 1 x Y" style="connectable=0;recursiveResize=0;strokeColor=inherit;fillColor=none;align=left;whiteSpace=wrap;html=1;" parent="ZxOc-NwCXkHzNGyO08E0-80" vertex="1">
          <mxGeometry x="480" width="200" height="44" as="geometry">
            <mxRectangle width="200" height="44" as="alternateBounds" />
          </mxGeometry>
        </mxCell>
        <mxCell id="ZxOc-NwCXkHzNGyO08E0-83" value="&#x9;&lt;span style=&quot;white-space: pre;&quot;&gt;&#x9;&lt;/span&gt;-" style="connectable=0;recursiveResize=0;strokeColor=inherit;fillColor=none;align=left;whiteSpace=wrap;html=1;" parent="ZxOc-NwCXkHzNGyO08E0-80" vertex="1">
          <mxGeometry x="680" width="161" height="44" as="geometry">
            <mxRectangle width="161" height="44" as="alternateBounds" />
          </mxGeometry>
        </mxCell>
        <mxCell id="ZxOc-NwCXkHzNGyO08E0-84" style="shape=tableRow;horizontal=0;startSize=0;swimlaneHead=0;swimlaneBody=0;top=0;left=0;bottom=0;right=0;dropTarget=0;collapsible=0;recursiveResize=0;expand=0;fontStyle=0;fillColor=none;strokeColor=inherit;" parent="ZxOc-NwCXkHzNGyO08E0-48" vertex="1">
          <mxGeometry y="393" width="841" height="44" as="geometry" />
        </mxCell>
        <mxCell id="ZxOc-NwCXkHzNGyO08E0-85" value="&lt;span style=&quot;white-space: pre;&quot;&gt;&#x9;&lt;/span&gt;5.2 ELSE" style="connectable=0;recursiveResize=0;strokeColor=inherit;fillColor=none;align=left;whiteSpace=wrap;html=1;" parent="ZxOc-NwCXkHzNGyO08E0-84" vertex="1">
          <mxGeometry width="480" height="44" as="geometry">
            <mxRectangle width="480" height="44" as="alternateBounds" />
          </mxGeometry>
        </mxCell>
        <mxCell id="ZxOc-NwCXkHzNGyO08E0-86" value="&#x9;&lt;span style=&quot;white-space: pre;&quot;&gt;&#x9;&lt;/span&gt;0.2" style="connectable=0;recursiveResize=0;strokeColor=inherit;fillColor=none;align=left;whiteSpace=wrap;html=1;" parent="ZxOc-NwCXkHzNGyO08E0-84" vertex="1">
          <mxGeometry x="480" width="200" height="44" as="geometry">
            <mxRectangle width="200" height="44" as="alternateBounds" />
          </mxGeometry>
        </mxCell>
        <mxCell id="ZxOc-NwCXkHzNGyO08E0-87" value="" style="connectable=0;recursiveResize=0;strokeColor=inherit;fillColor=none;align=left;whiteSpace=wrap;html=1;" parent="ZxOc-NwCXkHzNGyO08E0-84" vertex="1">
          <mxGeometry x="680" width="161" height="44" as="geometry">
            <mxRectangle width="161" height="44" as="alternateBounds" />
          </mxGeometry>
        </mxCell>
        <mxCell id="ZxOc-NwCXkHzNGyO08E0-108" style="shape=tableRow;horizontal=0;startSize=0;swimlaneHead=0;swimlaneBody=0;top=0;left=0;bottom=0;right=0;dropTarget=0;collapsible=0;recursiveResize=0;expand=0;fontStyle=0;fillColor=none;strokeColor=inherit;" parent="ZxOc-NwCXkHzNGyO08E0-48" vertex="1">
          <mxGeometry y="437" width="841" height="44" as="geometry" />
        </mxCell>
        <mxCell id="ZxOc-NwCXkHzNGyO08E0-109" value="&lt;span style=&quot;white-space: pre;&quot;&gt;&#x9;&lt;/span&gt;5.2.1 SYSTEM disable the submit button" style="connectable=0;recursiveResize=0;strokeColor=inherit;fillColor=none;align=left;whiteSpace=wrap;html=1;" parent="ZxOc-NwCXkHzNGyO08E0-108" vertex="1">
          <mxGeometry width="480" height="44" as="geometry">
            <mxRectangle width="480" height="44" as="alternateBounds" />
          </mxGeometry>
        </mxCell>
        <mxCell id="ZxOc-NwCXkHzNGyO08E0-110" style="connectable=0;recursiveResize=0;strokeColor=inherit;fillColor=none;align=left;whiteSpace=wrap;html=1;" parent="ZxOc-NwCXkHzNGyO08E0-108" vertex="1">
          <mxGeometry x="480" width="200" height="44" as="geometry">
            <mxRectangle width="200" height="44" as="alternateBounds" />
          </mxGeometry>
        </mxCell>
        <mxCell id="ZxOc-NwCXkHzNGyO08E0-111" style="connectable=0;recursiveResize=0;strokeColor=inherit;fillColor=none;align=left;whiteSpace=wrap;html=1;" parent="ZxOc-NwCXkHzNGyO08E0-108" vertex="1">
          <mxGeometry x="680" width="161" height="44" as="geometry">
            <mxRectangle width="161" height="44" as="alternateBounds" />
          </mxGeometry>
        </mxCell>
        <mxCell id="ZxOc-NwCXkHzNGyO08E0-88" style="shape=tableRow;horizontal=0;startSize=0;swimlaneHead=0;swimlaneBody=0;top=0;left=0;bottom=0;right=0;dropTarget=0;collapsible=0;recursiveResize=0;expand=0;fontStyle=0;fillColor=none;strokeColor=inherit;" parent="ZxOc-NwCXkHzNGyO08E0-48" vertex="1">
          <mxGeometry y="481" width="841" height="44" as="geometry" />
        </mxCell>
        <mxCell id="ZxOc-NwCXkHzNGyO08E0-89" value="&#x9;&lt;span style=&quot;white-space: pre;&quot;&gt;&#x9;&lt;/span&gt;5.2.2 USER select refuse" style="connectable=0;recursiveResize=0;strokeColor=inherit;fillColor=none;align=left;whiteSpace=wrap;html=1;" parent="ZxOc-NwCXkHzNGyO08E0-88" vertex="1">
          <mxGeometry width="480" height="44" as="geometry">
            <mxRectangle width="480" height="44" as="alternateBounds" />
          </mxGeometry>
        </mxCell>
        <mxCell id="ZxOc-NwCXkHzNGyO08E0-90" value="&#x9;&lt;span style=&quot;white-space: pre;&quot;&gt;&#x9;&lt;/span&gt;1 x 1 x Y" style="connectable=0;recursiveResize=0;strokeColor=inherit;fillColor=none;align=left;whiteSpace=wrap;html=1;" parent="ZxOc-NwCXkHzNGyO08E0-88" vertex="1">
          <mxGeometry x="480" width="200" height="44" as="geometry">
            <mxRectangle width="200" height="44" as="alternateBounds" />
          </mxGeometry>
        </mxCell>
        <mxCell id="ZxOc-NwCXkHzNGyO08E0-91" value="&#x9;&lt;span style=&quot;white-space: pre;&quot;&gt;&#x9;&lt;/span&gt;-" style="connectable=0;recursiveResize=0;strokeColor=inherit;fillColor=none;align=left;whiteSpace=wrap;html=1;" parent="ZxOc-NwCXkHzNGyO08E0-88" vertex="1">
          <mxGeometry x="680" width="161" height="44" as="geometry">
            <mxRectangle width="161" height="44" as="alternateBounds" />
          </mxGeometry>
        </mxCell>
        <mxCell id="ZxOc-NwCXkHzNGyO08E0-92" style="shape=tableRow;horizontal=0;startSize=0;swimlaneHead=0;swimlaneBody=0;top=0;left=0;bottom=0;right=0;dropTarget=0;collapsible=0;recursiveResize=0;expand=0;fontStyle=0;fillColor=none;strokeColor=inherit;" parent="ZxOc-NwCXkHzNGyO08E0-48" vertex="1">
          <mxGeometry y="525" width="841" height="44" as="geometry" />
        </mxCell>
        <mxCell id="ZxOc-NwCXkHzNGyO08E0-93" value="&lt;span style=&quot;white-space: pre;&quot;&gt;&#x9;&lt;/span&gt;6&amp;nbsp;USER close classifier evaluation window&amp;nbsp;" style="connectable=0;recursiveResize=0;strokeColor=inherit;fillColor=none;align=left;whiteSpace=wrap;html=1;" parent="ZxOc-NwCXkHzNGyO08E0-92" vertex="1">
          <mxGeometry width="480" height="44" as="geometry">
            <mxRectangle width="480" height="44" as="alternateBounds" />
          </mxGeometry>
        </mxCell>
        <mxCell id="ZxOc-NwCXkHzNGyO08E0-94" value="&#x9;&lt;span style=&quot;white-space: pre;&quot;&gt;&#x9;&lt;/span&gt;1 x 1 x Y" style="connectable=0;recursiveResize=0;strokeColor=inherit;fillColor=none;align=left;whiteSpace=wrap;html=1;" parent="ZxOc-NwCXkHzNGyO08E0-92" vertex="1">
          <mxGeometry x="480" width="200" height="44" as="geometry">
            <mxRectangle width="200" height="44" as="alternateBounds" />
          </mxGeometry>
        </mxCell>
        <mxCell id="ZxOc-NwCXkHzNGyO08E0-95" value="&#x9;&lt;span style=&quot;white-space: pre;&quot;&gt;&#x9;&lt;/span&gt;-" style="connectable=0;recursiveResize=0;strokeColor=inherit;fillColor=none;align=left;whiteSpace=wrap;html=1;" parent="ZxOc-NwCXkHzNGyO08E0-92" vertex="1">
          <mxGeometry x="680" width="161" height="44" as="geometry">
            <mxRectangle width="161" height="44" as="alternateBounds" />
          </mxGeometry>
        </mxCell>
        <mxCell id="ZxOc-NwCXkHzNGyO08E0-96" style="shape=tableRow;horizontal=0;startSize=0;swimlaneHead=0;swimlaneBody=0;top=0;left=0;bottom=0;right=0;dropTarget=0;collapsible=0;recursiveResize=0;expand=0;fontStyle=0;fillColor=none;strokeColor=inherit;" parent="ZxOc-NwCXkHzNGyO08E0-48" vertex="1">
          <mxGeometry y="569" width="841" height="44" as="geometry" />
        </mxCell>
        <mxCell id="ZxOc-NwCXkHzNGyO08E0-97" style="connectable=0;recursiveResize=0;strokeColor=inherit;fillColor=none;align=left;whiteSpace=wrap;html=1;" parent="ZxOc-NwCXkHzNGyO08E0-96" vertex="1">
          <mxGeometry width="480" height="44" as="geometry">
            <mxRectangle width="480" height="44" as="alternateBounds" />
          </mxGeometry>
        </mxCell>
        <mxCell id="ZxOc-NwCXkHzNGyO08E0-98" value="&#x9;&lt;span style=&quot;font-weight: 700;&quot;&gt;&lt;span style=&quot;white-space: pre;&quot;&gt;&#x9;&lt;/span&gt;HUMAN TASK COST&lt;/span&gt;" style="connectable=0;recursiveResize=0;strokeColor=inherit;fillColor=none;align=left;whiteSpace=wrap;html=1;" parent="ZxOc-NwCXkHzNGyO08E0-96" vertex="1">
          <mxGeometry x="480" width="200" height="44" as="geometry">
            <mxRectangle width="200" height="44" as="alternateBounds" />
          </mxGeometry>
        </mxCell>
        <mxCell id="ZxOc-NwCXkHzNGyO08E0-99" value="&lt;span style=&quot;white-space: pre;&quot;&gt;&#x9;&lt;/span&gt;-" style="connectable=0;recursiveResize=0;strokeColor=inherit;fillColor=none;align=left;whiteSpace=wrap;html=1;fontStyle=1" parent="ZxOc-NwCXkHzNGyO08E0-96" vertex="1">
          <mxGeometry x="680" width="161" height="44" as="geometry">
            <mxRectangle width="161" height="44" as="alternateBounds" />
          </mxGeometry>
        </mxCell>
      </root>
    </mxGraphModel>
  </diagram>
</mxfile>
